<svg width="61" height="42" viewBox="0 0 61 42" fill="none" xmlns="http://www.w3.org/2000/svg">
<path fill-rule="evenodd" clip-rule="evenodd" d="M51.9206 8.11485C53.4985 9.64112 53.5451 12.1624 52.0245 13.7463L33.7377 32.7939C32.9986 33.5637 31.9823 34.003 30.9172 34.0129C29.8522 34.0228 28.8279 33.6025 28.0748 32.8466L20.7451 25.4895L6.816 39.9029C5.29022 41.4818 2.77819 41.5202 1.20522 39.9887C-0.367754 38.4572 -0.406008 35.9358 1.11977 34.357L17.8539 17.0409C18.5939 16.2752 19.609 15.8394 20.6718 15.8313C21.7346 15.8232 22.7562 16.2434 23.5077 16.9977L30.8281 24.3454L46.3101 8.21913C47.8307 6.63526 50.3426 6.58857 51.9206 8.11485Z" fill="#E75C5C"/>
<path fill-rule="evenodd" clip-rule="evenodd" d="M35 3.98269C35 1.78311 36.7765 0 38.9679 0L56.2196 0C58.411 0 60.1874 1.78311 60.1874 3.98269V20.9524C60.1874 23.152 58.411 24.9351 56.2196 24.9351C54.0282 24.9351 52.2517 23.152 52.2517 20.9524V7.96539H38.9679C36.7765 7.96539 35 6.18228 35 3.98269Z" fill="#E75C5C"/>
</svg>
