<svg width="159" height="158" viewBox="0 0 159 158" fill="none" xmlns="http://www.w3.org/2000/svg">
<g filter="url(#filter0_dii_39_533)">
<path d="M76.8551 16.504C77.9522 14.2628 81.1468 14.2628 82.244 16.504L86.75 25.7086C87.1847 26.5966 88.029 27.2134 89.007 27.3575L99.1293 28.8493C101.581 29.2107 102.562 32.221 100.794 33.9577L93.4428 41.1772C92.7422 41.8653 92.4227 42.8526 92.5873 43.8207L94.3173 53.991C94.7348 56.4453 92.1538 58.3108 89.9544 57.1445L80.9549 52.3725C80.076 51.9064 79.0231 51.9064 78.1441 52.3725L69.1447 57.1445C66.9452 58.3108 64.3643 56.4453 64.7817 53.991L66.5117 43.8207C66.6763 42.8526 66.3568 41.8653 65.6562 41.1772L58.305 33.9577C56.5367 32.221 57.5177 29.2107 59.9697 28.8493L70.092 27.3575C71.0701 27.2134 71.9143 26.5966 72.349 25.7086L76.8551 16.504Z" fill="url(#paint0_linear_39_533)"/>
</g>
<defs>
<filter id="filter0_dii_39_533" x="0.200867" y="0.522507" width="158.697" height="157.084" filterUnits="userSpaceOnUse" color-interpolation-filters="sRGB">
<feFlood flood-opacity="0" result="BackgroundImageFix"/>
<feColorMatrix in="SourceAlpha" type="matrix" values="0 0 0 0 0 0 0 0 0 0 0 0 0 0 0 0 0 0 127 0" result="hardAlpha"/>
<feOffset dy="42.9022"/>
<feGaussianBlur stdDeviation="28.6015"/>
<feComposite in2="hardAlpha" operator="out"/>
<feColorMatrix type="matrix" values="0 0 0 0 0.441638 0 0 0 0 0.245593 0 0 0 0 0.0646293 0 0 0 0.25 0"/>
<feBlend mode="normal" in2="BackgroundImageFix" result="effect1_dropShadow_39_533"/>
<feBlend mode="normal" in="SourceGraphic" in2="effect1_dropShadow_39_533" result="shape"/>
<feColorMatrix in="SourceAlpha" type="matrix" values="0 0 0 0 0 0 0 0 0 0 0 0 0 0 0 0 0 0 127 0" result="hardAlpha"/>
<feOffset dy="-14.3007"/>
<feGaussianBlur stdDeviation="14.3007"/>
<feComposite in2="hardAlpha" operator="arithmetic" k2="-1" k3="1"/>
<feColorMatrix type="matrix" values="0 0 0 0 0.549971 0 0 0 0 0.304646 0 0 0 0 0.0781912 0 0 0 0.57 0"/>
<feBlend mode="normal" in2="shape" result="effect2_innerShadow_39_533"/>
<feColorMatrix in="SourceAlpha" type="matrix" values="0 0 0 0 0 0 0 0 0 0 0 0 0 0 0 0 0 0 127 0" result="hardAlpha"/>
<feOffset dy="-14.3007"/>
<feGaussianBlur stdDeviation="7.15037"/>
<feComposite in2="hardAlpha" operator="arithmetic" k2="-1" k3="1"/>
<feColorMatrix type="matrix" values="0 0 0 0 1 0 0 0 0 0.981301 0 0 0 0 0.813007 0 0 0 0.72 0"/>
<feBlend mode="normal" in2="effect2_innerShadow_39_533" result="effect3_innerShadow_39_533"/>
</filter>
<linearGradient id="paint0_linear_39_533" x1="69.3659" y1="16.458" x2="80.6576" y2="56.6752" gradientUnits="userSpaceOnUse">
<stop offset="0.0001" stop-color="#FFED8C"/>
<stop offset="1" stop-color="#F4B335"/>
</linearGradient>
</defs>
</svg>
